<svg xmlns="http://www.w3.org/2000/svg" viewBox="0 0 1000 1000" xml:space="preserve"><switch><g><circle fill="#382B73" cx="500" cy="500" r="398"/><circle fill="#473080" cx="500" cy="500" r="344.3"/><path fill="#382B73" d="M751 599.8 722.8 470h-.2c.1-.6.2-1.3.3-1.9.7-4.6 1.1-9.3 1.1-14.2v-3c0-.6 0-1.2-.1-1.8 0-.4 0-.8-.1-1.1 0-.4 0-.8-.1-1.2-2.7-35-24.7-64.6-55.4-78v-17.1c0-5.5-4.5-10-10-10h-54.6c-5.5 0-10 4.5-10 10v15.6c-25.7 4.1-51.7 6.4-77.7 7.1V313c0-8.8-7.2-16-16-16s-16 7.2-16 16v61.3c-26-.7-51.9-3.1-77.7-7.1v-15.6c0-5.5-4.5-10-10-10h-54.6c-5.5 0-10 4.5-10 10v17.1c-30.7 13.5-52.7 43-55.4 78 0 .4-.1.8-.1 1.2 0 .4-.1.8-.1 1.1 0 .6-.1 1.2-.1 1.8v3c0 4.8.4 9.5 1.1 14.2.1.6.2 1.3.3 1.9h-.2L249 599.8c-7.1 32.5 17.7 63.2 50.9 63.2 20.8 0 39.6-12.4 47.9-31.5l36.9-85.9 1.8-.3c.2 0 .4-.1.5-.1 2.1-.4 4.2-.9 6.3-1.5.1 0 .3-.1.4-.1 1.1-.3 2.1-.6 3.1-.9l2.9-.4 9.4-1.4c15-2.3 30.2-4 45.3-5.2 30.3-2.3 60.7-2.3 91 0 15.1 1.1 30.3 2.9 45.3 5.2l9.4 1.4 2.9.4c1 .3 2.1.6 3.1.9.1 0 .3.1.4.1 2.1.6 4.2 1.1 6.3 1.5.2 0 .4.1.5.1l1.8.3 36.9 85.9c8.2 19.1 27.1 31.5 47.9 31.5 33.4 0 58.2-30.7 51.1-63.2z"/><g><path fill="#EF5A9D" d="M668.3 360.3h-74.7v-28.7c0-5.5 4.5-10 10-10h54.6c5.5 0 10 4.5 10 10v28.7z"/><path fill="#1CAEE4" d="M406.3 360.3h-74.7v-28.7c0-5.5 4.5-10 10-10h54.6c5.5 0 10 4.5 10 10v28.7z"/><path fill="#A72973" d="M668.3 338.8c-11.4-5-24.1-7.8-37.3-7.8-10.7 0-20.9 1.8-30.5 5.1l-.9.1c-2 .3-4 .7-6 1v23.1h74.7v-21.5z"/><path fill="#177BC0" d="M406.3 337.2c-2-.3-4-.6-6-1l-.9-.1c-9.6-3.3-19.8-5.1-30.5-5.1-13.3 0-25.9 2.8-37.3 7.8v21.6h74.7v-23.2z"/><path fill="#D1D3D4" d="M299.9 643c-33.2 0-58-30.7-50.9-63.2L277.2 450h140l-69.4 161.5c-8.2 19.1-27.1 31.5-47.9 31.5zM700.1 643c33.2 0 58-30.7 50.9-63.2L722.8 450h-140l69.4 161.5c8.2 19.1 27.1 31.5 47.9 31.5z"/><path fill="#FEDE3A" d="M500 402c-8.8 0-16-7.2-16-16v-93c0-8.8 7.2-16 16-16s16 7.2 16 16v93c0 8.8-7.2 16-16 16z"/><path fill="#FFF" d="m631 526.9-40.2-6.1c-60.2-9.2-121.4-9.2-181.6 0l-40.2 6.1V341l31.4 5.3c66 11.1 133.3 11.1 199.3 0L631 341v185.9z"/><circle fill="#FFF" cx="369" cy="434" r="93"/><circle fill="#FFF" cx="631" cy="434" r="93"/><path fill="#D1D3D4" d="M631 507.9c-9.7 0-19.1-1.5-27.9-4.3l-12.3-1.9c-60.2-9.2-121.4-9.2-181.6 0l-12.3 1.9c-8.8 2.8-18.2 4.3-27.9 4.3-48.2 0-87.8-36.6-92.5-83.5-.3 3.1-.5 6.3-.5 9.5 0 51.4 41.6 93 93 93 9.7 0 19.1-1.5 27.9-4.3l12.3-1.9c60.2-9.2 121.4-9.2 181.6 0l12.3 1.9c8.8 2.8 18.2 4.3 27.9 4.3 51.4 0 93-41.6 93-93 0-3.2-.2-6.4-.5-9.5-4.7 47-44.3 83.5-92.5 83.5z"/><path fill="#D1D3D4" d="M369 469.3c-5.9 0-10.6-4.8-10.6-10.6v-69.4c0-5.9 4.8-10.6 10.6-10.6 5.9 0 10.6 4.8 10.6 10.6v69.4c0 5.9-4.7 10.6-10.6 10.6z"/><path fill="#D1D3D4" d="M323.7 424c0-5.9 4.8-10.6 10.6-10.6h69.4c5.9 0 10.6 4.8 10.6 10.6 0 5.9-4.8 10.6-10.6 10.6h-69.4c-5.9 0-10.6-4.7-10.6-10.6z"/><path fill="#EF5A9D" d="M369 464.3c-5.9 0-10.6-4.8-10.6-10.6v-69.4c0-5.9 4.8-10.6 10.6-10.6 5.9 0 10.6 4.8 10.6 10.6v69.4c0 5.9-4.7 10.6-10.6 10.6z"/><path fill="#EF5A9D" d="M323.7 419c0-5.9 4.8-10.6 10.6-10.6h69.4c5.9 0 10.6 4.8 10.6 10.6 0 5.9-4.8 10.6-10.6 10.6h-69.4c-5.9 0-10.6-4.7-10.6-10.6z"/><path fill="#A72973" d="M403.7 424h-24.1v5.7h24.1c5.9 0 10.6-4.8 10.6-10.6 0-1-.1-1.9-.4-2.8-1.2 4.4-5.3 7.7-10.2 7.7zM358.4 424h-24.1c-4.9 0-9-3.3-10.2-7.8-.3.9-.4 1.9-.4 2.8 0 5.9 4.8 10.6 10.6 10.6h24.1V424zM369 458.7c-5.9 0-10.6-4.8-10.6-10.6v5.7c0 5.9 4.8 10.6 10.6 10.6s10.6-4.8 10.6-10.6V448c0 5.9-4.7 10.7-10.6 10.7z"/><circle fill="#D1D3D4" cx="631" cy="394.1" r="15.7"/><circle fill="#D1D3D4" cx="631" cy="463.8" r="15.7"/><circle fill="#D1D3D4" cx="665.8" cy="429" r="15.7"/><circle fill="#D1D3D4" cx="596.2" cy="429" r="15.7"/><circle fill="#1CAEE4" cx="631" cy="389.1" r="15.7"/><path fill="#177BC0" d="M631 396.8c-7.3 0-13.4-5-15.1-11.7-.3 1.3-.5 2.6-.5 4 0 8.7 7 15.7 15.7 15.7s15.7-7 15.7-15.7c0-1.4-.2-2.7-.5-4-1.9 6.7-8 11.7-15.3 11.7z"/><circle fill="#1CAEE4" cx="631" cy="458.8" r="15.7"/><circle fill="#1CAEE4" cx="665.8" cy="424" r="15.7"/><circle fill="#1CAEE4" cx="596.2" cy="424" r="15.7"/><path fill="#D1D3D4" d="M513.5 421h-26.9c-4.5 0-8.2-3.7-8.2-8.2 0-4.5 3.7-8.2 8.2-8.2h26.9c4.5 0 8.2 3.7 8.2 8.2 0 4.5-3.7 8.2-8.2 8.2zM513.5 448.4h-26.9c-4.5 0-8.2-3.7-8.2-8.2 0-4.5 3.7-8.2 8.2-8.2h26.9c4.5 0 8.2 3.7 8.2 8.2 0 4.5-3.7 8.2-8.2 8.2z"/><path fill="#FEDE3A" d="M513.5 416h-26.9c-4.5 0-8.2-3.7-8.2-8.2 0-4.5 3.7-8.2 8.2-8.2h26.9c4.5 0 8.2 3.7 8.2 8.2 0 4.5-3.7 8.2-8.2 8.2zM513.5 443.4h-26.9c-4.5 0-8.2-3.7-8.2-8.2 0-4.5 3.7-8.2 8.2-8.2h26.9c4.5 0 8.2 3.7 8.2 8.2 0 4.5-3.7 8.2-8.2 8.2z"/><g><path fill="#E7AD27" d="M513.5 437.2h-26.9c-3.4 0-6.4-2.1-7.6-5.1-.4 1-.6 2-.6 3.1 0 4.5 3.7 8.2 8.2 8.2h26.9c4.5 0 8.2-3.7 8.2-8.2 0-1.1-.2-2.1-.6-3.1-1.3 3-4.2 5.1-7.6 5.1z"/></g><g><path fill="#E7AD27" d="M513.5 409.8h-26.9c-3.4 0-6.4-2.1-7.6-5.1-.4 1-.6 2-.6 3.1 0 4.5 3.7 8.2 8.2 8.2h26.9c4.5 0 8.2-3.7 8.2-8.2 0-1.1-.2-2.1-.6-3.1-1.3 3-4.2 5.1-7.6 5.1z"/></g><g><path fill="#177BC0" d="M596.2 431.6c-7.3 0-13.4-5-15.1-11.7-.3 1.3-.5 2.6-.5 4 0 8.7 7 15.7 15.7 15.7s15.7-7 15.7-15.7c0-1.4-.2-2.7-.5-4-2 6.8-8.1 11.7-15.3 11.7z"/></g><g><path fill="#177BC0" d="M631 466.5c-7.3 0-13.4-5-15.1-11.7-.3 1.3-.5 2.6-.5 4 0 8.7 7 15.7 15.7 15.7s15.7-7 15.7-15.7c0-1.4-.2-2.7-.5-4-1.9 6.7-8 11.7-15.3 11.7z"/></g><g><path fill="#177BC0" d="M665.8 431.6c-7.3 0-13.4-5-15.1-11.7-.3 1.3-.5 2.6-.5 4 0 8.7 7 15.7 15.7 15.7s15.7-7 15.7-15.7c0-1.4-.2-2.7-.5-4-1.9 6.8-8 11.7-15.3 11.7z"/></g><g><path fill="#E7AD27" d="M484 325.3h32v29h-32z"/></g></g></g></switch></svg>